# File created by Blade
# Date/Time:  Thu Sep 25 18:58:07 2014
# Frame Rate: 120.000 fps
#------------------------------------------------------
:FULLY-SPECIFIED
:DEGREES
2733
root 1.371744 33.011170 1.057965 8.509845 1.116789 -0.075929
Spine -6.610739 2.720507 -2.450766
Head 11.641307 -11.825503 14.989753
LeftShoulder -23.194142 19.484766 23.639553
LeftArm 5.477986 -31.228966 -39.535965
LeftForeArm 22.435567 -0.000000 14.311531
LeftHand -38.013721 -0.000000 6.130048
LeftHandThumb1 -26.253704 0.000000 33.147579
RightShoulder -28.318831 9.272943 -37.889714
RightArm -30.122324 13.777191 33.769260
RightForeArm -35.528226 0.000000 16.623114
RightHand -20.262668 -0.000000 5.308138
RightHandThumb1 -24.326973 -0.000000 -32.862282
LeftUpLeg -3.660714 10.445685 3.798354
LeftLeg -2.152762 -0.000000 0.000000
LeftFoot -4.524908 -3.863561 -18.690266
LeftToeBase 9.170295 -0.000000 -0.000000
RightUpLeg -3.911145 -10.530705 -5.863980
RightLeg 0.592616 -0.000000 -0.000000
RightFoot -3.493547 -1.586706 3.912521
RightToeBase -2.763094 -0.000000 0.000000
2734
root 1.371680 33.011008 1.056831 8.504988 1.131977 -0.071734
Spine -6.596166 2.705465 -2.452641
Head 11.714243 -11.730732 15.088636
LeftShoulder -23.194996 19.455881 23.673913
LeftArm 5.453068 -31.302242 -39.526635
LeftForeArm 22.487520 -0.000000 14.336601
LeftHand -37.971858 -0.000000 6.040385
LeftHandThumb1 -26.253704 0.000000 33.147579
RightShoulder -28.344058 9.295987 -37.888055
RightArm -30.113686 13.743158 33.733144
RightForeArm -35.605811 -0.000000 16.620631
RightHand -20.179618 -0.000000 5.313398
RightHandThumb1 -24.326973 -0.000000 -32.862282
LeftUpLeg -3.664493 10.427916 3.797140
LeftLeg -2.133470 -0.000000 0.000000
LeftFoot -4.533327 -3.898707 -18.691205
LeftToeBase 9.329955 -0.000000 -0.000000
RightUpLeg -3.909189 -10.554118 -5.863575
RightLeg 0.591457 -0.000000 -0.000000
RightFoot -3.495444 -1.540750 3.943745
RightToeBase -2.779261 -0.000000 0.000000
2735
root 1.372208 33.011493 1.056812 8.489236 1.145810 -0.067080
Spine -6.572471 2.683162 -2.449719
Head 11.814684 -11.636735 15.178379
LeftShoulder -23.221329 19.434916 23.694078
LeftArm 5.444533 -31.213279 -39.511604
LeftForeArm 22.327884 -0.000000 14.398218
LeftHand -38.216592 0.000000 6.060867
LeftHandThumb1 -26.253704 0.000000 33.147579
RightShoulder -28.379620 9.323865 -37.890789
RightArm -30.073883 13.691003 33.713044
RightForeArm -35.587979 -0.000000 16.637365
RightHand -20.245545 -0.000000 5.405005
RightHandThumb1 -24.326973 -0.000000 -32.862282
LeftUpLeg -3.650616 10.420559 3.796358
LeftLeg -2.142396 -0.000000 0.000000
LeftFoot -4.516823 -3.881362 -18.738973
LeftToeBase 9.212017 -0.000000 -0.000000
RightUpLeg -3.890447 -10.559436 -5.870955
RightLeg 0.593047 -0.000000 -0.000000
RightFoot -3.496905 -1.538517 3.926359
RightToeBase -2.765043 -0.000000 0.000000
2736
root 1.372750 33.011809 1.056739 8.478070 1.149966 -0.063558
Spine -6.552541 2.679070 -2.444480
Head 11.940709 -11.552781 15.254188
LeftShoulder -23.240380 19.375578 23.690675
LeftArm 5.433608 -31.296749 -39.473603
LeftForeArm 22.446418 -0.000000 14.368407
LeftHand -38.129655 0.000000 6.118928
LeftHandThumb1 -26.253704 0.000000 33.147579
RightShoulder -28.400624 9.320010 -37.895618
RightArm -30.069487 13.674200 33.700720
RightForeArm -35.607495 0.000000 16.669108
RightHand -20.242941 -0.000000 5.429575
RightHandThumb1 -24.326973 -0.000000 -32.862282
LeftUpLeg -3.637590 10.425445 3.793542
LeftLeg -2.147528 -0.000000 0.000000
LeftFoot -4.508154 -3.883321 -18.712823
LeftToeBase 9.179790 -0.000000 -0.000000
RightUpLeg -3.878230 -10.541322 -5.880558
RightLeg 0.598529 -0.000000 -0.000000
RightFoot -3.516273 -1.547986 3.989283
RightToeBase -2.696384 -0.000000 0.000000
2737
root 1.372384 33.012010 1.056511 8.460622 1.155051 -0.062941
Spine -6.527861 2.677934 -2.444152
Head 12.095228 -11.472395 15.347299
LeftShoulder -23.259316 19.335685 23.691423
LeftArm 5.418734 -31.261575 -39.423915
LeftForeArm 22.443474 -0.000000 14.372200
LeftHand -38.250669 -0.000000 6.166062
LeftHandThumb1 -26.253704 0.000000 33.147579
RightShoulder -28.409639 9.326527 -37.892708
RightArm -30.097219 13.632578 33.686388
RightForeArm -35.722444 -0.000000 16.722319
RightHand -20.198067 -0.000000 5.497832
RightHandThumb1 -24.326973 -0.000000 -32.862282
LeftUpLeg -3.621091 10.423250 3.797332
LeftLeg -2.148676 -0.000000 0.000000
LeftFoot -4.499084 -3.888776 -18.725281
LeftToeBase 9.161916 -0.000000 -0.000000
RightUpLeg -3.864411 -10.541706 -5.879319
RightLeg 0.602302 -0.000000 -0.000000
RightFoot -3.497543 -1.579699 3.919896
RightToeBase -2.794800 -0.000000 0.000000
2738
root 1.371258 33.011854 1.057362 8.441093 1.154592 -0.077065
Spine -6.492957 2.693768 -2.411914
Head 12.252936 -11.378947 15.383989
LeftShoulder -23.309783 19.306984 23.625113
LeftArm 5.455216 -31.222146 -39.363944
LeftForeArm 22.442533 -0.000000 14.384014
LeftHand -38.210697 0.000000 6.143429
LeftHandThumb1 -26.253704 0.000000 33.147579
RightShoulder -28.450540 9.297752 -37.919117
RightArm -30.090624 13.584549 33.730716
RightForeArm -35.797301 -0.000000 16.761634
RightHand -20.164855 -0.000000 5.433677
RightHandThumb1 -24.326973 -0.000000 -32.862282
LeftUpLeg -3.617582 10.529696 3.808934
LeftLeg -2.115541 -0.000000 0.000000
LeftFoot -4.490660 -3.995427 -18.708851
LeftToeBase 9.197041 -0.000000 -0.000000
RightUpLeg -3.847208 -10.540328 -5.870120
RightLeg 0.615708 -0.000000 -0.000000
RightFoot -3.524883 -1.561154 3.979540
RightToeBase -2.727240 -0.000000 0.000000
2739
root 1.372419 33.011745 1.057221 8.425649 1.153232 -0.066635
Spine -6.466062 2.708601 -2.417180
Head 12.462712 -11.294259 15.435719
LeftShoulder -23.338148 19.284935 23.595591
LeftArm 5.482877 -31.194021 -39.337184
LeftForeArm 22.446850 -0.000000 14.393110
LeftHand -38.260811 -0.000000 6.256360
LeftHandThumb1 -26.253704 0.000000 33.147579
RightShoulder -28.476078 9.294371 -37.942490
RightArm -30.110749 13.514248 33.773382
RightForeArm -35.978770 -0.000000 16.751333
RightHand -20.073664 0.000000 5.295922
RightHandThumb1 -24.326973 -0.000000 -32.862282
LeftUpLeg -3.602079 10.532181 3.797723
LeftLeg -2.105838 -0.000000 0.000000
LeftFoot -4.503465 -4.027681 -18.691819
LeftToeBase 9.339404 -0.000000 -0.000000
RightUpLeg -3.835928 -10.531488 -5.882865
RightLeg 0.618716 -0.000000 -0.000000
RightFoot -3.513825 -1.579412 3.939047
RightToeBase -2.771816 -0.000000 0.000000
2740
root 1.373138 33.011628 1.057133 8.413598 1.153138 -0.060571
Spine -6.451269 2.727732 -2.420368
Head 12.722935 -11.258010 15.460090
LeftShoulder -23.356422 19.292086 23.578047
LeftArm 5.511319 -31.212691 -39.347096
LeftForeArm 22.502912 -0.000000 14.438748
LeftHand -38.293703 -0.000000 6.209159
LeftHandThumb1 -26.253704 0.000000 33.147579
RightShoulder -28.497339 9.263714 -37.944028
RightArm -30.109268 13.437267 33.816775
RightForeArm -36.016876 -0.000000 16.756878
RightHand -20.079493 -0.000000 5.270649
RightHandThumb1 -24.326973 -0.000000 -32.862282
LeftUpLeg -3.594720 10.557652 3.791318
LeftLeg -2.104763 -0.000000 0.000000
LeftFoot -4.492286 -4.023326 -18.696329
LeftToeBase 9.187133 -0.000000 -0.000000
RightUpLeg -3.824798 -10.514701 -5.893248
RightLeg 0.622040 -0.000000 -0.000000
RightFoot -3.511132 -1.594994 3.935958
RightToeBase -2.825183 -0.000000 0.000000
2741
root 1.374131 33.011707 1.059010 8.381252 1.144858 -0.057455
Spine -6.414269 2.752880 -2.418042
Head 12.998339 -11.260449 15.429510
LeftShoulder -23.367324 19.321638 23.573554
LeftArm 5.504011 -31.267790 -39.396755
LeftForeArm 22.561603 -0.000000 14.534733
LeftHand -38.224344 -0.000000 6.176676
LeftHandThumb1 -26.253704 0.000000 33.147579
RightShoulder -28.531077 9.258799 -37.934370
RightArm -30.083302 13.356269 33.824750
RightForeArm -36.081313 -0.000000 16.754620
RightHand -20.197337 0.000000 5.429746
RightHandThumb1 -24.326973 -0.000000 -32.862282
LeftUpLeg -3.549400 10.545790 3.792609
LeftLeg -2.122357 -0.000000 0.000000
LeftFoot -4.483523 -3.991331 -18.668519
LeftToeBase 9.133917 -0.000000 -0.000000
RightUpLeg -3.785344 -10.511593 -5.902965
RightLeg 0.610074 -0.000000 -0.000000
RightFoot -3.512363 -1.595350 3.914696
RightToeBase -2.798726 -0.000000 0.000000
2742
root 1.374486 33.011654 1.058710 8.365864 1.140628 -0.052916
Spine -6.391746 2.769953 -2.416265
Head 13.297785 -11.254260 15.393572
LeftShoulder -23.388386 19.299877 23.558140
LeftArm 5.518685 -31.131070 -39.368451
LeftForeArm 22.510435 0.000000 14.517507
LeftHand -38.215527 -0.000000 6.122524
LeftHandThumb1 -26.253704 0.000000 33.147579
RightShoulder -28.575045 9.217704 -37.937672
RightArm -30.027366 13.306122 33.885841
RightForeArm -36.109208 0.000000 16.713413
RightHand -20.286292 0.000000 5.425802
RightHandThumb1 -24.326973 -0.000000 -32.862282
LeftUpLeg -3.533633 10.538195 3.791557
LeftLeg -2.120107 -0.000000 0.000000
LeftFoot -4.493979 -3.990026 -18.678713
LeftToeBase 9.182055 -0.000000 -0.000000
RightUpLeg -3.771065 -10.479858 -5.915542
RightLeg 0.621743 -0.000000 -0.000000
RightFoot -3.516298 -1.665507 3.867236
RightToeBase -2.810687 -0.000000 0.000000
2743
root 1.375437 33.011891 1.059158 8.352811 1.131892 -0.051622
Spine -6.378364 2.787499 -2.404844
Head 13.649372 -11.211755 15.353591
LeftShoulder -23.411600 19.300463 23.540336
LeftArm 5.524785 -31.147297 -39.376329
LeftForeArm 22.607351 -0.000000 14.476276
LeftHand -37.752604 -0.000000 6.258698
LeftHandThumb1 -26.253704 0.000000 33.147579
RightShoulder -28.604387 9.209510 -37.962343
RightArm -30.026387 13.257661 33.911162
RightForeArm -36.152139 -0.000000 16.674187
RightHand -20.206229 -0.000000 5.459332
RightHandThumb1 -24.326973 -0.000000 -32.862282
LeftUpLeg -3.519312 10.551539 3.789002
LeftLeg -2.117598 -0.000000 0.000000
LeftFoot -4.488581 -3.993779 -18.675584
LeftToeBase 9.151064 -0.000000 -0.000000
RightUpLeg -3.759814 -10.489119 -5.918321
RightLeg 0.614115 -0.000000 -0.000000
RightFoot -3.507153 -1.601198 3.921685
RightToeBase -2.820268 -0.000000 0.000000
2744
root 1.376429 33.011998 1.059672 8.329006 1.125826 -0.044521
Spine -6.346923 2.791569 -2.404053
Head 13.993217 -11.152256 15.338733
LeftShoulder -23.459995 19.341597 23.519738
LeftArm 5.546214 -31.080909 -39.410090
LeftForeArm 22.598510 -0.000000 14.538322
LeftHand -37.790355 -0.000000 6.183283
LeftHandThumb1 -26.253704 0.000000 33.147579
RightShoulder -28.621067 9.216036 -37.986638
RightArm -30.099502 13.309724 33.899262
RightForeArm -36.347807 -0.000000 16.711624
RightHand -20.091187 0.000000 5.453878
RightHandThumb1 -24.326973 -0.000000 -32.862282
LeftUpLeg -3.492283 10.538995 3.785046
LeftLeg -2.119983 -0.000000 0.000000
LeftFoot -4.494622 -3.978456 -18.710067
LeftToeBase 9.226726 -0.000000 -0.000000
RightUpLeg -3.733102 -10.495845 -5.930794
RightLeg 0.607088 -0.000000 -0.000000
RightFoot -3.503250 -1.595004 3.912692
RightToeBase -2.806112 -0.000000 0.000000
